# xmcd
#
# Track frame offsets: 
#        150
#        21023
#        33749
#        54922
#        76216
#        91968
#        107172
#        119976
#        139890
#        153361
#        175834
#        188077
#        211032
#
# Disc length: 3061 seconds
#
# Revision: 0
# Processed by: cddbd v1.5.2PL0 Copyright (c) Steve Scherf et al.
# Submitted via: ExactAudioCopy v0.99pb4
#
DISCID=aa0bf30d
DTITLE=Victoria Huggins - Through it All
DYEAR=2007
DGENRE=Gospel
TTITLE0=Amazing Love
TTITLE1=Sky Full of Angels
TTITLE2=Belive
TTITLE3=Blessed Assurance
TTITLE4=If That Don't Make You Want to Go(to Heaven)
TTITLE5=Praise Your Way Out
TTITLE6=Shackles
TTITLE7=Holding Me
TTITLE8=Me and God
TTITLE9=Sweet Holy Spirit
TTITLE10=Pray For The Fish
TTITLE11=The Promise
TTITLE12=Anyway
EXTD=
EXTT0=
EXTT1=
EXTT2=
EXTT3=
EXTT4=
EXTT5=
EXTT6=
EXTT7=
EXTT8=
EXTT9=
EXTT10=
EXTT11=
EXTT12=
PLAYORDER=
